<svg xmlns="http://www.w3.org/2000/svg" viewBox="0 0 768 960" role="img" aria-labelledby="title desc">
  <title id="title">Portrait placeholder for Nikhil Sai Nethi</title>
  <desc id="desc">An abstract portrait-style placeholder with soft gradients, initials, and a polished glass-like card background.</desc>
  <defs>
    <linearGradient id="bg" x1="108" y1="82" x2="642" y2="888" gradientUnits="userSpaceOnUse">
      <stop offset="0" stop-color="#d3e3ff"/>
      <stop offset="0.48" stop-color="#f3f7ff"/>
      <stop offset="1" stop-color="#efe9ff"/>
    </linearGradient>
    <linearGradient id="orb" x1="164" y1="198" x2="618" y2="672" gradientUnits="userSpaceOnUse">
      <stop offset="0" stop-color="#6c63ff" stop-opacity="0.22"/>
      <stop offset="1" stop-color="#ffb36b" stop-opacity="0.18"/>
    </linearGradient>
  </defs>
  <rect width="768" height="960" rx="72" fill="url(#bg)"/>
  <circle cx="574" cy="208" r="142" fill="url(#orb)"/>
  <circle cx="228" cy="744" r="176" fill="#fff7d6" opacity="0.5"/>
  <rect x="76" y="88" width="616" height="784" rx="54" fill="#ffffff" fill-opacity="0.45" stroke="#ffffff" stroke-opacity="0.8" stroke-width="3"/>
  <circle cx="384" cy="332" r="114" fill="#20365f" opacity="0.08"/>
  <path d="M384 258c63 0 114 52 114 116 0 6-1 12-2 18-27 34-67 54-112 54-47 0-89-22-116-58-1-5-2-9-2-14 0-64 51-116 118-116Z" fill="#344d7a" opacity="0.16"/>
  <path d="M250 645c18-83 76-132 134-132 58 0 118 49 134 132l-268 0Z" fill="#344d7a" opacity="0.14"/>
  <text x="384" y="398" fill="#1f3153" font-family="Arial, Helvetica, sans-serif" font-size="72" font-weight="700" letter-spacing="10" text-anchor="middle">NSN</text>
  <text x="384" y="716" fill="#5d6e88" font-family="Arial, Helvetica, sans-serif" font-size="24" font-weight="600" letter-spacing="6" text-anchor="middle">NIKHIL SAI NETHI</text>
  <text x="384" y="758" fill="#6c63ff" font-family="Arial, Helvetica, sans-serif" font-size="18" font-weight="600" letter-spacing="5" text-anchor="middle">CLOUD · OBSERVABILITY · AI</text>
</svg>
